<svg width="22" height="24" viewBox="0 0 22 24" fill="none" xmlns="http://www.w3.org/2000/svg">
<path d="M20.5521 15.5404L18.534 13.5423V8.61872C18.5609 6.79041 17.915 5.01427 16.7157 3.61827C15.5163 2.22226 13.8445 1.30067 12.009 1.02365C10.9437 0.885516 9.86069 0.972669 8.8323 1.2793C7.80392 1.58593 6.85378 2.10498 6.04527 2.80183C5.23676 3.49867 4.58847 4.35729 4.14367 5.32038C3.69887 6.28347 3.46778 7.32889 3.46582 8.38689V13.5423L1.44775 15.5404C1.19427 15.7941 1.02237 16.1158 0.953552 16.4653C0.884732 16.8147 0.922043 17.1763 1.06082 17.505C1.1996 17.8336 1.43368 18.1147 1.73381 18.3131C2.03395 18.5115 2.38681 18.6184 2.74828 18.6204H6.51534V18.9957C6.5677 20.1164 7.06913 21.171 7.90973 21.9283C8.75034 22.6857 9.86157 23.084 10.9999 23.0361C12.1383 23.084 13.2495 22.6857 14.0901 21.9283C14.9307 21.171 15.4321 20.1164 15.4845 18.9957V18.6204H19.2516C19.613 18.6184 19.9659 18.5115 20.266 18.3131C20.5662 18.1147 20.8002 17.8336 20.939 17.505C21.0778 17.1763 21.1151 16.8147 21.0463 16.4653C20.9775 16.1158 20.8056 15.7941 20.5521 15.5404ZM13.2422 18.9957C13.18 19.5267 12.9122 20.0136 12.4945 20.355C12.0768 20.6963 11.5414 20.8659 10.9999 20.8282C10.4584 20.8659 9.92306 20.6963 9.50535 20.355C9.08765 20.0136 8.81981 19.5267 8.75763 18.9957V18.6204H13.2422V18.9957Z" fill="#DFA128"/>
</svg>
