<svg width="24" height="24" viewBox="0 0 24 24" fill="none" xmlns="http://www.w3.org/2000/svg">
<path d="M5.69967 17.2998C5.51634 17.1165 5.42467 16.8831 5.42467 16.5998C5.42467 16.3165 5.51634 16.0831 5.69967 15.8998L9.57467 11.9998L5.69967 8.0998C5.51634 7.91647 5.42034 7.68747 5.41167 7.4128C5.403 7.13814 5.499 6.90047 5.69967 6.6998C5.883 6.51647 6.11634 6.4248 6.39967 6.4248C6.683 6.4248 6.91634 6.51647 7.09967 6.6998L11.6997 11.2998C11.7997 11.3998 11.8707 11.5081 11.9127 11.6248C11.9547 11.7415 11.9753 11.8665 11.9747 11.9998C11.9747 12.1331 11.954 12.2581 11.9127 12.3748C11.8713 12.4915 11.8003 12.5998 11.6997 12.6998L7.09967 17.2998C6.91634 17.4831 6.68734 17.5791 6.41267 17.5878C6.138 17.5965 5.90034 17.5005 5.69967 17.2998ZM12.2997 17.2998C12.1163 17.1165 12.0247 16.8831 12.0247 16.5998C12.0247 16.3165 12.1163 16.0831 12.2997 15.8998L16.1747 11.9998L12.2997 8.0998C12.1163 7.91647 12.0203 7.68747 12.0117 7.4128C12.003 7.13814 12.099 6.90047 12.2997 6.6998C12.483 6.51647 12.7163 6.4248 12.9997 6.4248C13.283 6.4248 13.5163 6.51647 13.6997 6.6998L18.2997 11.2998C18.3997 11.3998 18.4707 11.5081 18.5127 11.6248C18.5547 11.7415 18.5753 11.8665 18.5747 11.9998C18.5747 12.1331 18.5537 12.2581 18.5117 12.3748C18.4697 12.4915 18.399 12.5998 18.2997 12.6998L13.6997 17.2998C13.5163 17.4831 13.2873 17.5791 13.0127 17.5878C12.738 17.5965 12.5003 17.5005 12.2997 17.2998Z" fill="white"/>
</svg>
