<svg width="14" height="8" viewBox="0 0 14 8" fill="none" xmlns="http://www.w3.org/2000/svg">
<path d="M0.0402598 1.05406C0.00718957 0.952499 -0.00571368 0.845144 0.00231508 0.73836C0.0103438 0.631576 0.0391412 0.527537 0.0869997 0.432411C0.134858 0.337285 0.200803 0.253009 0.280925 0.18458C0.361047 0.116152 0.453715 0.0649627 0.553433 0.0340493C0.653152 0.00313592 0.757891 -0.00687264 0.861442 0.00461658C0.964992 0.0161058 1.06525 0.0488589 1.15626 0.100934C1.24727 0.15301 1.32718 0.223348 1.39127 0.307776C1.45535 0.392205 1.5023 0.489006 1.52932 0.592441C3.1522 6.18147 10.8511 6.18227 12.4756 0.595641C12.5047 0.494887 12.5528 0.401017 12.6172 0.31939C12.6816 0.237764 12.761 0.16998 12.8509 0.119909C12.9408 0.0698373 13.0393 0.0384592 13.141 0.0275656C13.2427 0.016672 13.3454 0.0264762 13.4434 0.0564188C13.5414 0.0863614 13.6326 0.135856 13.712 0.202077C13.7914 0.268297 13.8573 0.349946 13.906 0.442363C13.9547 0.534779 13.9852 0.636153 13.9958 0.740696C14.0064 0.84524 13.9969 0.950905 13.9677 1.05166C13.6847 2.05265 13.2046 2.98314 12.5573 3.78537L13.5492 4.80621C13.6909 4.9571 13.7693 5.15919 13.7676 5.36896C13.7658 5.57872 13.684 5.77938 13.5397 5.92771C13.3955 6.07604 13.2003 6.16018 12.9964 6.16201C12.7924 6.16383 12.5959 6.08319 12.4491 5.93746L11.4292 4.88861C10.8787 5.31544 10.2707 5.65745 9.62426 5.90386L9.902 6.9719C9.93163 7.07434 9.941 7.18185 9.92955 7.28808C9.9181 7.39431 9.88607 7.49711 9.83535 7.5904C9.78463 7.68368 9.71624 7.76557 9.63423 7.83123C9.55222 7.89689 9.45825 7.94499 9.35787 7.97268C9.25748 8.00037 9.15272 8.0071 9.04976 7.99246C8.94681 7.97783 8.84775 7.94213 8.75844 7.88747C8.66912 7.83281 8.59136 7.7603 8.52975 7.67423C8.46813 7.58815 8.42392 7.49026 8.39971 7.38632L8.11652 6.30067C7.37977 6.41268 6.62668 6.41268 5.88993 6.30067L5.60674 7.38632C5.58253 7.49026 5.53832 7.58815 5.47671 7.67423C5.41509 7.7603 5.33733 7.83281 5.24802 7.88747C5.1587 7.94213 5.05964 7.97783 4.95669 7.99246C4.85373 8.0071 4.74897 8.00037 4.64859 7.97268C4.5482 7.94499 4.45423 7.89689 4.37222 7.83123C4.29021 7.76557 4.22183 7.68368 4.1711 7.5904C4.12038 7.49711 4.08835 7.39431 4.07691 7.28808C4.06546 7.18185 4.07483 7.07434 4.10445 6.9719L4.38219 5.90386C3.73573 5.65718 3.12769 5.3149 2.57727 4.88782L1.55811 5.93746C1.41223 6.08768 1.21429 6.17216 1.00785 6.17231C0.801396 6.17246 0.603345 6.08827 0.45726 5.93826C0.311175 5.78825 0.229024 5.5847 0.228878 5.3724C0.228732 5.1601 0.310603 4.95644 0.456482 4.80621L1.44841 3.78617C0.838473 3.03734 0.351454 2.1269 0.0387039 1.05486L0.0402598 1.05406Z" fill="#545454"/>
</svg>
