<svg width="4" height="14" viewBox="0 0 4 14" fill="none" xmlns="http://www.w3.org/2000/svg">
<path d="M2.33317 3.6665C1.89114 3.6665 1.46722 3.49091 1.15466 3.17835C0.842099 2.86579 0.666504 2.44186 0.666504 1.99984C0.666504 1.55781 0.842099 1.13389 1.15466 0.821326C1.46722 0.508766 1.89114 0.333171 2.33317 0.333171C2.7752 0.333171 3.19912 0.508766 3.51168 0.821326C3.82424 1.13389 3.99984 1.55781 3.99984 1.99984C3.99984 2.44186 3.82424 2.86579 3.51168 3.17835C3.19912 3.49091 2.7752 3.6665 2.33317 3.6665ZM2.33317 8.6665C1.89114 8.6665 1.46722 8.49091 1.15466 8.17835C0.842099 7.86579 0.666504 7.44186 0.666504 6.99984C0.666504 6.55781 0.842099 6.13389 1.15466 5.82133C1.46722 5.50877 1.89114 5.33317 2.33317 5.33317C2.7752 5.33317 3.19912 5.50877 3.51168 5.82133C3.82424 6.13389 3.99984 6.55781 3.99984 6.99984C3.99984 7.44186 3.82424 7.86579 3.51168 8.17835C3.19912 8.49091 2.7752 8.6665 2.33317 8.6665ZM2.33317 13.6665C1.89114 13.6665 1.46722 13.4909 1.15466 13.1783C0.842099 12.8658 0.666504 12.4419 0.666504 11.9998C0.666504 11.5578 0.842099 11.1339 1.15466 10.8213C1.46722 10.5088 1.89114 10.3332 2.33317 10.3332C2.7752 10.3332 3.19912 10.5088 3.51168 10.8213C3.82424 11.1339 3.99984 11.5578 3.99984 11.9998C3.99984 12.4419 3.82424 12.8658 3.51168 13.1783C3.19912 13.4909 2.7752 13.6665 2.33317 13.6665Z" fill="#4B4B4B"/>
</svg>
